# xmcd
#
# Track frame offsets:
#	150
#	22778
#	37636
#	56730
#	72190
#	86672
#	110648
#	127816
#	151934
#	173225
#	197271
#	218003
#	246297
#
# Disc length: 4440 seconds
#
# Revision: 0
# Processed by: cddbd v1.5.1PL0 Copyright (c) Steve Scherf et al.
# Submitted via: dBpowerAMP V4.0
#
DISCID=9d11560d
DTITLE=Poul Halberg - Love Affair
DYEAR=2002
DGENRE=Blues/Rock
TTITLE0=Angels
TTITLE1=Never Ending Love
TTITLE2=High
TTITLE3=Every Little Thing
TTITLE4=Cry
TTITLE5=Operator
TTITLE6=All That You Dream
TTITLE7=Burn
TTITLE8=Love Affair
TTITLE9=Dangerous Lovers
TTITLE10=I´m Gonna Find A Way
TTITLE11=For You
TTITLE12=DATA
EXTD=
EXTT0=
EXTT1=
EXTT2=
EXTT3=
EXTT4=
EXTT5=
EXTT6=
EXTT7=
EXTT8=
EXTT9=
EXTT10=
EXTT11=
EXTT12=
PLAYORDER=
